<mxfile host="app.diagrams.net" modified="2024-06-30T09:02:56.638Z" agent="Mozilla/5.0 (Macintosh; Intel Mac OS X 10_15_7) AppleWebKit/537.36 (KHTML, like Gecko) Chrome/126.0.0.0 Safari/537.36" version="24.6.4" etag="4PO00AQfyZPL1O07obZ0" type="github">
  <diagram name="第 1 页" id="ovcMMeZbk4Ni1yxTUiG7">
    <mxGraphModel>
      <root>
        <mxCell id="0" />
        <mxCell id="1" parent="0" />
      </root>
    </mxGraphModel>
  </diagram>
</mxfile>
